<svg width="24" height="24" viewBox="0 0 24 24" fill="none" xmlns="http://www.w3.org/2000/svg">
<path d="M12 22C17.5228 22 22 17.5228 22 12C22 6.47715 17.5228 2 12 2C6.47715 2 2 6.47715 2 12C2 17.5228 6.47715 22 12 22Z" fill="#F2F2F9"/>
<path d="M18.4118 8.02203C17.9402 8.23134 17.4335 8.37283 16.9009 8.43643C17.4445 8.1109 17.861 7.59504 18.0576 6.98108C17.5412 7.2878 16.976 7.50373 16.3867 7.61949C15.907 7.10825 15.2231 6.78906 14.4664 6.78906C13.014 6.78906 11.8361 7.96648 11.8361 9.41972C11.8361 9.62563 11.8593 9.82652 11.9039 10.0194C9.71754 9.9095 7.77917 8.8622 6.48172 7.27083C6.25516 7.65949 6.12549 8.11137 6.12549 8.59351C6.12549 9.50607 6.58997 10.3112 7.29574 10.7829C6.87793 10.7699 6.4693 10.6572 6.10399 10.454V10.4872C6.10399 11.7619 7.01065 12.8248 8.21418 13.0666C7.99309 13.1271 7.76107 13.1588 7.52104 13.1588C7.35133 13.1588 7.18667 13.1427 7.02582 13.1125C7.3606 14.1572 8.33214 14.9178 9.48297 14.9392C8.58263 15.645 7.44817 16.0657 6.21601 16.0657C6.00379 16.0657 5.79404 16.0531 5.58813 16.0282C6.75251 16.7749 8.13503 17.2107 9.6207 17.2107C14.4593 17.2107 17.1055 13.2022 17.1055 9.7259C17.1055 9.61178 17.103 9.4985 17.0975 9.38563C17.6131 9.01272 18.0581 8.55098 18.4118 8.02203Z" fill="#141929"/>
</svg>
