<svg width="24" height="24" viewBox="0 0 24 24" fill="none" xmlns="http://www.w3.org/2000/svg">
<path d="M12 22C17.5228 22 22 17.5228 22 12C22 6.47715 17.5228 2 12 2C6.47715 2 2 6.47715 2 12C2 17.5228 6.47715 22 12 22Z" fill="#F2F2F9"/>
<path fill-rule="evenodd" clip-rule="evenodd" d="M12 6C10.3704 6 10.1664 6.0068 9.5264 6.036C8.8876 6.0652 8.4512 6.1668 8.0696 6.3152C7.6696 6.4656 7.3068 6.7016 7.0068 7.0072C6.70169 7.30685 6.46554 7.6694 6.3148 8.0696C6.1672 8.4512 6.0652 8.888 6.036 9.5268C6.0072 10.1664 6 10.37 6 12C6 13.63 6.0068 13.8336 6.036 14.4736C6.0652 15.1124 6.1668 15.5488 6.3152 15.9304C6.4656 16.3304 6.7016 16.6932 7.0072 16.9932C7.30686 17.2983 7.6694 17.5344 8.0696 17.6852C8.4512 17.8332 8.8876 17.9348 9.5264 17.964C10.1664 17.9932 10.3704 18 12 18C13.6296 18 13.8336 17.9932 14.4736 17.964C15.1124 17.9348 15.5488 17.8332 15.9304 17.6848C16.3304 17.5344 16.6932 17.2984 16.9932 16.9928C17.2983 16.6931 17.5345 16.3306 17.6852 15.9304C17.8332 15.5488 17.9348 15.1124 17.964 14.4736C17.9932 13.8336 18 13.6296 18 12C18 10.3704 17.9932 10.1664 17.964 9.5264C17.9348 8.8876 17.8332 8.4512 17.6848 8.0696C17.5342 7.66923 17.298 7.30653 16.9928 7.0068C16.6931 6.70169 16.3306 6.46554 15.9304 6.3148C15.5488 6.1672 15.112 6.0652 14.4732 6.036C13.8336 6.0072 13.63 6 12 6ZM12 7.0812C13.602 7.0812 13.792 7.0872 14.4248 7.116C15.0096 7.1428 15.3272 7.24 15.5388 7.3228C15.8188 7.4312 16.0188 7.5616 16.2288 7.7712C16.4388 7.9812 16.5688 8.1812 16.6772 8.4612C16.7596 8.6728 16.8572 8.9904 16.884 9.5752C16.9128 10.208 16.9188 10.398 16.9188 12C16.9188 13.602 16.9128 13.792 16.884 14.4248C16.8572 15.0096 16.76 15.3272 16.6772 15.5388C16.5812 15.7994 16.428 16.0352 16.2288 16.2288C16.0352 16.428 15.7994 16.5812 15.5388 16.6772C15.3272 16.7596 15.0096 16.8572 14.4248 16.884C13.792 16.9128 13.6024 16.9188 12 16.9188C10.3976 16.9188 10.208 16.9128 9.5752 16.884C8.9904 16.8572 8.6728 16.76 8.4612 16.6772C8.20058 16.5812 7.9648 16.428 7.7712 16.2288C7.57207 16.0352 7.41885 15.7994 7.3228 15.5388C7.2404 15.3272 7.1428 15.0096 7.116 14.4248C7.0872 13.792 7.0812 13.602 7.0812 12C7.0812 10.398 7.0872 10.208 7.116 9.5752C7.1428 8.9904 7.24 8.6728 7.3228 8.4612C7.4312 8.1812 7.5616 7.9812 7.7712 7.7712C7.96478 7.57202 8.20056 7.41879 8.4612 7.3228C8.6728 7.2404 8.9904 7.1428 9.5752 7.116C10.208 7.0872 10.398 7.0812 12 7.0812Z" fill="#141929"/>
<path fill-rule="evenodd" clip-rule="evenodd" d="M12 14.0019C11.7371 14.0019 11.4768 13.9501 11.2339 13.8495C10.991 13.7489 10.7703 13.6014 10.5844 13.4155C10.3985 13.2296 10.251 13.0089 10.1504 12.766C10.0498 12.5231 9.99802 12.2628 9.99802 11.9999C9.99802 11.737 10.0498 11.4766 10.1504 11.2337C10.251 10.9908 10.3985 10.7701 10.5844 10.5842C10.7703 10.3983 10.991 10.2509 11.2339 10.1503C11.4768 10.0496 11.7371 9.99786 12 9.99786C12.531 9.99786 13.0402 10.2088 13.4156 10.5842C13.7911 10.9597 14.002 11.4689 14.002 11.9999C14.002 12.5308 13.7911 13.04 13.4156 13.4155C13.0402 13.7909 12.531 14.0019 12 14.0019ZM12 8.91586C11.1821 8.91586 10.3977 9.24078 9.8193 9.81914C9.24094 10.3975 8.91602 11.1819 8.91602 11.9999C8.91602 12.8178 9.24094 13.6022 9.8193 14.1806C10.3977 14.7589 11.1821 15.0839 12 15.0839C12.8179 15.0839 13.6024 14.7589 14.1807 14.1806C14.7591 13.6022 15.084 12.8178 15.084 11.9999C15.084 11.1819 14.7591 10.3975 14.1807 9.81914C13.6024 9.24078 12.8179 8.91586 12 8.91586ZM15.9812 8.85986C15.9812 9.0532 15.9044 9.23863 15.7677 9.37534C15.631 9.51205 15.4456 9.58886 15.2522 9.58886C15.0589 9.58886 14.8734 9.51205 14.7367 9.37534C14.6 9.23863 14.5232 9.0532 14.5232 8.85986C14.5232 8.66652 14.6 8.48109 14.7367 8.34438C14.8734 8.20766 15.0589 8.13086 15.2522 8.13086C15.4456 8.13086 15.631 8.20766 15.7677 8.34438C15.9044 8.48109 15.9812 8.66652 15.9812 8.85986Z" fill="#141929"/>
</svg>
