<svg width="304" height="32" viewBox="0 0 304 32" fill="none" xmlns="http://www.w3.org/2000/svg">
<path d="M0.0681379 13.1433L0.0681375 4.72029C0.0681374 2.38949 1.94536 0.5 4.26102 0.5C6.57669 0.5 8.45391 2.38949 8.45391 4.72029L8.45391 13.1433H0.0681379Z" fill="#2438CC"/>
<path d="M0 9.739V5.60839C1.08258 8.22065 3.12227 9.06313 8.66355 9.739H0Z" fill="#11208C"/>
<path d="M0.0681379 9.71904H12.6596C17.718 9.71904 21.8187 13.8465 21.8187 18.9381C21.8187 24.0296 17.718 28.1571 12.6596 28.1571H7.31834C3.31416 28.1571 0.0681379 24.8899 0.0681379 20.8595V9.71904Z" fill="#374EF3"/>
<path d="M0.0681379 9.71904V5.50462C1.11601 8.16989 3.09029 9.02946 8.45391 9.71904H0.0681379Z" fill="#374EF3"/>
<path d="M8.19186 19.2015C8.19186 20.4589 8.68882 21.6649 9.57343 22.554C10.458 23.4432 11.6578 23.9427 12.9089 23.9427C14.1599 23.9427 15.3597 23.4432 16.2443 22.554C17.1289 21.6649 17.6259 20.4589 17.6259 19.2015L8.19186 19.2015Z" fill="#DDE1FF"/>
<path d="M35.7443 5.22652H41.8225C44.423 5.22652 46.3911 5.59405 47.727 6.32909C49.0629 7.06414 49.7308 8.35496 49.7308 10.2015C49.7308 10.9456 49.6106 11.6179 49.3701 12.2184C49.1386 12.819 48.8002 13.312 48.3549 13.6975C47.9096 14.083 47.3663 14.3339 46.7251 14.4505V14.5849C47.3752 14.7194 47.963 14.9525 48.4885 15.2841C49.0139 15.6068 49.4325 16.0819 49.7442 16.7094C50.0648 17.3279 50.2251 18.1526 50.2251 19.1835C50.2251 20.3757 49.9357 21.3976 49.3568 22.2492C48.7779 23.1007 47.9497 23.7551 46.8721 24.2123C45.8034 24.6605 44.5298 24.8846 43.0515 24.8846H35.7443V5.22652ZM39.8855 13.0118H42.29C43.4923 13.0118 44.325 12.8235 44.7881 12.447C45.2512 12.0616 45.4828 11.4968 45.4828 10.7528C45.4828 9.99985 45.2067 9.46201 44.6545 9.13931C44.1113 8.80764 43.2474 8.6418 42.0629 8.6418H39.8855V13.0118ZM39.8855 16.3195V21.4424H42.5839C43.8307 21.4424 44.6991 21.2004 45.1889 20.7163C45.6787 20.2323 45.9236 19.5824 45.9236 18.7666C45.9236 18.2826 45.8167 17.8568 45.603 17.4893C45.3892 17.1217 45.0286 16.8349 44.5209 16.6287C44.0222 16.4226 43.332 16.3195 42.4503 16.3195H39.8855Z" fill="#F2F2F2"/>
<path d="M67.5112 9.85194V24.8846H64.3853L63.8376 22.9618H63.6238C63.3032 23.4727 62.9025 23.8896 62.4216 24.2123C61.9407 24.535 61.4108 24.7725 60.8319 24.9249C60.253 25.0773 59.6519 25.1535 59.0285 25.1535C57.9598 25.1535 57.0291 24.9652 56.2365 24.5888C55.4439 24.2033 54.8249 23.6072 54.3796 22.8004C53.9433 21.9937 53.7251 20.9449 53.7251 19.6541V9.85194H57.7995V18.6322C57.7995 19.7079 57.9909 20.5191 58.3739 21.0659C58.7568 21.6127 59.3669 21.8861 60.204 21.8861C61.0323 21.8861 61.6824 21.6979 62.1544 21.3214C62.6264 20.9359 62.9559 20.3757 63.1429 19.6406C63.3389 18.8966 63.4368 17.9913 63.4368 16.9245V9.85194H67.5112Z" fill="#F2F2F2"/>
<path d="M75.8604 9.85194V24.8846H71.786V9.85194H75.8604ZM73.8299 3.9626C74.4355 3.9626 74.9565 4.10602 75.3928 4.39287C75.8292 4.67075 76.0474 5.19515 76.0474 5.96605C76.0474 6.72799 75.8292 7.25687 75.3928 7.55268C74.9565 7.83953 74.4355 7.98295 73.8299 7.98295C73.2154 7.98295 72.6899 7.83953 72.2536 7.55268C71.8261 7.25687 71.6123 6.72799 71.6123 5.96605C71.6123 5.19515 71.8261 4.67075 72.2536 4.39287C72.6899 4.10602 73.2154 3.9626 73.8299 3.9626Z" fill="#F2F2F2"/>
<path d="M84.2229 24.8846H80.1485V3.9626H84.2229V24.8846Z" fill="#F2F2F2"/>
<path d="M93.2401 25.1535C91.5747 25.1535 90.2165 24.4991 89.1656 23.1904C88.1237 21.8727 87.6027 19.9409 87.6027 17.3951C87.6027 14.8225 88.1326 12.8773 89.1924 11.5596C90.2522 10.2329 91.637 9.56958 93.3469 9.56958C94.0594 9.56958 94.6872 9.66818 95.2305 9.86539C95.7737 10.0626 96.2413 10.327 96.6332 10.6587C97.0339 10.9904 97.3723 11.3624 97.6484 11.7747H97.782C97.7286 11.4879 97.6618 11.0666 97.5816 10.5108C97.5104 9.94607 97.4748 9.36789 97.4748 8.77626V3.9626H101.563V24.8846H98.4366L97.6484 22.9349H97.4748C97.2165 23.3472 96.8914 23.7237 96.4996 24.0644C96.1166 24.396 95.658 24.6605 95.1236 24.8577C94.5893 25.0549 93.9614 25.1535 93.2401 25.1535ZM94.6694 21.8861C95.7827 21.8861 96.5664 21.5544 97.0206 20.8911C97.4837 20.2188 97.7286 19.2104 97.7553 17.8658V17.422C97.7553 15.9609 97.5326 14.8449 97.0873 14.074C96.6421 13.2941 95.8138 12.9042 94.6026 12.9042C93.7031 12.9042 92.9996 13.2941 92.492 14.074C91.9843 14.8539 91.7305 15.9788 91.7305 17.4489C91.7305 18.919 91.9843 20.0261 92.492 20.7701C93.0085 21.5141 93.7343 21.8861 94.6694 21.8861Z" fill="#F2F2F2"/>
<path d="M119.33 13.321L123.404 5.22652H127.866L121.387 17.2338V24.8846H117.272V17.3683L110.793 5.22652H115.282L119.33 13.321Z" fill="#F2F2F2"/>
<path d="M143.576 17.3414C143.576 18.5963 143.406 19.7079 143.068 20.676C142.738 21.6441 142.253 22.4643 141.612 23.1366C140.98 23.7999 140.214 24.3019 139.314 24.6425C138.424 24.9832 137.417 25.1535 136.295 25.1535C135.244 25.1535 134.278 24.9832 133.396 24.6425C132.523 24.3019 131.762 23.7999 131.112 23.1366C130.471 22.4643 129.972 21.6441 129.616 20.676C129.268 19.7079 129.095 18.5963 129.095 17.3414C129.095 15.6741 129.389 14.2622 129.976 13.1059C130.564 11.9495 131.401 11.071 132.488 10.4705C133.574 9.86987 134.87 9.56958 136.375 9.56958C137.773 9.56958 139.011 9.86987 140.089 10.4705C141.175 11.071 142.026 11.9495 142.64 13.1059C143.264 14.2622 143.576 15.6741 143.576 17.3414ZM133.249 17.3414C133.249 18.3274 133.356 19.1566 133.57 19.8289C133.784 20.5012 134.118 21.0076 134.572 21.3483C135.026 21.6889 135.618 21.8592 136.349 21.8592C137.07 21.8592 137.653 21.6889 138.099 21.3483C138.553 21.0076 138.882 20.5012 139.087 19.8289C139.301 19.1566 139.408 18.3274 139.408 17.3414C139.408 16.3464 139.301 15.5217 139.087 14.8673C138.882 14.204 138.553 13.7065 138.099 13.3748C137.644 13.0431 137.052 12.8773 136.322 12.8773C135.244 12.8773 134.46 13.2493 133.971 13.9933C133.49 14.7373 133.249 15.8533 133.249 17.3414Z" fill="#F2F2F2"/>
<path d="M160.648 9.85194V24.8846H157.522L156.974 22.9618H156.761C156.44 23.4727 156.039 23.8896 155.558 24.2123C155.077 24.535 154.548 24.7725 153.969 24.9249C153.39 25.0773 152.789 25.1535 152.165 25.1535C151.097 25.1535 150.166 24.9652 149.373 24.5888C148.581 24.2033 147.962 23.6072 147.516 22.8004C147.08 21.9937 146.862 20.9449 146.862 19.6541V9.85194H150.936V18.6322C150.936 19.7079 151.128 20.5191 151.511 21.0659C151.894 21.6127 152.504 21.8861 153.341 21.8861C154.169 21.8861 154.819 21.6979 155.291 21.3214C155.763 20.9359 156.093 20.3757 156.28 19.6406C156.476 18.8966 156.574 17.9913 156.574 16.9245V9.85194H160.648Z" fill="#F2F2F2"/>
<path d="M173.259 9.56958C173.463 9.56958 173.699 9.58302 173.967 9.60992C174.243 9.62784 174.465 9.65474 174.635 9.69059L174.327 13.5361C174.194 13.4913 174.002 13.46 173.753 13.442C173.512 13.4151 173.303 13.4017 173.125 13.4017C172.6 13.4017 172.087 13.4689 171.589 13.6034C171.099 13.7378 170.658 13.9575 170.266 14.2622C169.874 14.558 169.563 14.9525 169.331 15.4455C169.108 15.9295 168.997 16.5256 168.997 17.2338V24.8846H164.923V9.85194H168.009L168.61 12.3798H168.81C169.104 11.8688 169.469 11.4027 169.906 10.9814C170.351 10.5511 170.854 10.2105 171.415 9.95951C171.985 9.69956 172.6 9.56958 173.259 9.56958Z" fill="#F2F2F2"/>
<path d="M184.774 24.8846V5.22652H188.915V24.8846H184.774Z" fill="#F2F2F2"/>
<path d="M201.993 9.56958C203.587 9.56958 204.87 10.0088 205.84 10.8873C206.811 11.7568 207.296 13.1552 207.296 15.0824V24.8846H203.222V16.1043C203.222 15.0287 203.026 14.2174 202.634 13.6706C202.251 13.1238 201.646 12.8504 200.818 12.8504C199.571 12.8504 198.72 13.2762 198.266 14.1278C197.812 14.9794 197.585 16.2074 197.585 17.812V24.8846H193.51V9.85194H196.623L197.171 11.7747H197.398C197.718 11.2548 198.115 10.8335 198.587 10.5108C199.068 10.1881 199.597 9.95055 200.176 9.79816C200.764 9.64577 201.37 9.56958 201.993 9.56958Z" fill="#F2F2F2"/>
<path d="M216.22 25.1535C214.555 25.1535 213.197 24.4991 212.146 23.1904C211.104 21.8727 210.583 19.9409 210.583 17.3951C210.583 14.8225 211.113 12.8773 212.172 11.5596C213.232 10.2329 214.617 9.56958 216.327 9.56958C217.039 9.56958 217.667 9.66818 218.211 9.86539C218.754 10.0626 219.221 10.327 219.613 10.6587C220.014 10.9904 220.352 11.3624 220.628 11.7747H220.762C220.709 11.4879 220.642 11.0666 220.562 10.5108C220.49 9.94607 220.455 9.36789 220.455 8.77626V3.9626H224.543V24.8846H221.417L220.628 22.9349H220.455C220.197 23.3472 219.871 23.7237 219.48 24.0644C219.097 24.396 218.638 24.6605 218.104 24.8577C217.569 25.0549 216.941 25.1535 216.22 25.1535ZM217.649 21.8861C218.763 21.8861 219.546 21.5544 220.001 20.8911C220.464 20.2188 220.709 19.2104 220.735 17.8658V17.422C220.735 15.9609 220.513 14.8449 220.067 14.074C219.622 13.2941 218.794 12.9042 217.583 12.9042C216.683 12.9042 215.98 13.2941 215.472 14.074C214.964 14.8539 214.711 15.9788 214.711 17.4489C214.711 18.919 214.964 20.0261 215.472 20.7701C215.989 21.5141 216.714 21.8861 217.649 21.8861Z" fill="#F2F2F2"/>
<path d="M226.667 9.85194H231.128L233.947 18.3095C234.036 18.5784 234.112 18.8518 234.174 19.1297C234.236 19.4076 234.29 19.6944 234.334 19.9902C234.379 20.286 234.415 20.5953 234.441 20.918H234.521C234.575 20.4339 234.646 19.9813 234.735 19.56C234.833 19.1386 234.953 18.7218 235.096 18.3095L237.861 9.85194H242.229L235.911 26.8073C235.528 27.8472 235.029 28.7122 234.415 29.4024C233.8 30.1016 233.092 30.626 232.291 30.9756C231.498 31.3252 230.625 31.5 229.672 31.5C229.209 31.5 228.808 31.4731 228.47 31.4193C228.132 31.3745 227.842 31.3252 227.602 31.2714V28.0175C227.789 28.0623 228.025 28.1026 228.31 28.1385C228.595 28.1744 228.893 28.1923 229.205 28.1923C229.775 28.1923 230.265 28.0713 230.674 27.8292C231.084 27.5872 231.427 27.26 231.703 26.8477C231.979 26.4443 232.197 26.0006 232.357 25.5165L232.598 24.777L226.667 9.85194Z" fill="#F2F2F2"/>
<path d="M252.636 12.9311H249.109V24.8846H245.035V12.9311H242.791V10.9545L245.035 9.85194V8.74937C245.035 7.46752 245.249 6.47252 245.676 5.76436C246.112 5.04724 246.722 4.54526 247.506 4.25841C248.299 3.9626 249.234 3.81469 250.311 3.81469C251.104 3.81469 251.825 3.88192 252.476 4.01638C253.126 4.14188 253.656 4.2853 254.065 4.44665L253.023 7.45856C252.712 7.35995 252.373 7.27031 252.008 7.18964C251.643 7.10896 251.224 7.06862 250.752 7.06862C250.182 7.06862 249.764 7.24342 249.497 7.59302C249.238 7.93365 249.109 8.37288 249.109 8.91072V9.85194H252.636V12.9311Z" fill="#F2F2F2"/>
<path d="M268.693 9.85194V24.8846H265.567L265.019 22.9618H264.806C264.485 23.4727 264.084 23.8896 263.603 24.2123C263.122 24.535 262.593 24.7725 262.014 24.9249C261.435 25.0773 260.834 25.1535 260.21 25.1535C259.142 25.1535 258.211 24.9652 257.418 24.5888C256.626 24.2033 256.007 23.6072 255.561 22.8004C255.125 21.9937 254.907 20.9449 254.907 19.6541V9.85194H258.981V18.6322C258.981 19.7079 259.173 20.5191 259.556 21.0659C259.939 21.6127 260.549 21.8861 261.386 21.8861C262.214 21.8861 262.864 21.6979 263.336 21.3214C263.808 20.9359 264.138 20.3757 264.325 19.6406C264.521 18.8966 264.619 17.9913 264.619 16.9245V9.85194H268.693Z" fill="#F2F2F2"/>
<path d="M281.451 9.56958C283.045 9.56958 284.327 10.0088 285.298 10.8873C286.269 11.7568 286.754 13.1552 286.754 15.0824V24.8846H282.68V16.1043C282.68 15.0287 282.484 14.2174 282.092 13.6706C281.709 13.1238 281.103 12.8504 280.275 12.8504C279.028 12.8504 278.178 13.2762 277.723 14.1278C277.269 14.9794 277.042 16.2074 277.042 17.812V24.8846H272.968V9.85194H276.08L276.628 11.7747H276.855C277.176 11.2548 277.572 10.8335 278.044 10.5108C278.525 10.1881 279.055 9.95055 279.634 9.79816C280.222 9.64577 280.827 9.56958 281.451 9.56958Z" fill="#F2F2F2"/>
<path d="M295.678 25.1535C294.012 25.1535 292.654 24.4991 291.603 23.1904C290.561 21.8727 290.04 19.9409 290.04 17.3951C290.04 14.8225 290.57 12.8773 291.63 11.5596C292.69 10.2329 294.074 9.56958 295.784 9.56958C296.497 9.56958 297.125 9.66818 297.668 9.86539C298.211 10.0626 298.679 10.327 299.071 10.6587C299.471 10.9904 299.81 11.3624 300.086 11.7747H300.219C300.166 11.4879 300.099 11.0666 300.019 10.5108C299.948 9.94607 299.912 9.36789 299.912 8.77626V3.9626H304V24.8846H300.874L300.086 22.9349H299.912C299.654 23.3472 299.329 23.7237 298.937 24.0644C298.554 24.396 298.095 24.6605 297.561 24.8577C297.027 25.0549 296.399 25.1535 295.678 25.1535ZM297.107 21.8861C298.22 21.8861 299.004 21.5544 299.458 20.8911C299.921 20.2188 300.166 19.2104 300.193 17.8658V17.422C300.193 15.9609 299.97 14.8449 299.525 14.074C299.08 13.2941 298.251 12.9042 297.04 12.9042C296.141 12.9042 295.437 13.2941 294.929 14.074C294.422 14.8539 294.168 15.9788 294.168 17.4489C294.168 18.919 294.422 20.0261 294.929 20.7701C295.446 21.5141 296.172 21.8861 297.107 21.8861Z" fill="#F2F2F2"/>
</svg>
