<?xml version="1.0" standalone="no"?>
<!DOCTYPE svg PUBLIC "-//W3C//DTD SVG 20010904//EN"
 "http://www.w3.org/TR/2001/REC-SVG-20010904/DTD/svg10.dtd">
<svg version="1.0" xmlns="http://www.w3.org/2000/svg"
 width="397.000000pt" height="397.000000pt" viewBox="0 0 397.000000 397.000000"
 preserveAspectRatio="xMidYMid meet">
<metadata>
Created by potrace 1.14, written by Peter Selinger 2001-2017
</metadata>
<g transform="translate(0.000000,397.000000) scale(0.100000,-0.100000)"
fill="#000000" stroke="none">
<path d="M892 3955 c-242 -55 -436 -266 -466 -510 -13 -108 -15 -462 -7 -1470
l8 -1100 27 -93 c51 -181 135 -328 263 -462 118 -124 301 -236 447 -274 31 -8
60 -17 64 -20 26 -16 179 -21 637 -21 286 0 538 4 560 8 168 30 345 87 425
137 8 5 33 19 55 30 108 58 281 210 376 330 242 308 326 693 245 1116 -13 66
-60 193 -107 289 -129 258 -340 468 -599 596 -94 46 -231 93 -315 108 -33 6
-76 13 -95 17 -19 4 -201 8 -405 9 l-370 1 -5 420 c-5 396 -7 423 -28 484 -61
183 -207 328 -392 390 -83 28 -231 35 -318 15z"/>
</g>
</svg>
